<svg xmlns="http://www.w3.org/2000/svg" width="967.268" height="425.36" viewBox="0 0 967.268 425.36">
  <g id="Group_424" data-name="Group 424" transform="translate(-168.076 -73.24)">
    <path id="Path_2021" data-name="Path 2021" d="M681.383,129.9c-13.607.064-28.672-14.57-28.481-27.662.2-13.5,15.562-27.256,29.955-26.814,14.2.438,27.351,13.387,27.437,27.012C710.387,117.237,697.139,129.822,681.383,129.9Z" transform="translate(335.784 1.503)" fill="#ffb300"/>
    <path id="Path_2022" data-name="Path 2022" d="M545.166,324.829,524.787,332c-15.929.731-31.978,2.525-46.925-5.349-4.382-2.07-4.382-2.07-9.744-4.722l-.147-.053c-2.664-2.371-.814-.555-4.269-3.334-2.327-1.874-3.813-3.412-3.851-1.027-.086,5.308.212-.545-.051,4.506q.025,21.342.054,42.685l-32.389,0c-.085-4.714-.222-9.426-.244-14.14q-.251-53.05-.465-106.1l.161-5.787q.244-2.008.486-4.016,2.239-6.979,4.48-13.957l-.005.019q7.563-11.851,15.123-23.693l.03-.1c19.649-18.244,42.058-28.229,69.674-25.76,47.616,4.259,82.272,50.265,72.463,97.165-.479,2.292-.8,4.617-1.2,6.928a1.146,1.146,0,0,0-.284,1.483q-.617,1.239-1.232,2.481-.292,1.071-.582,2.145-2.633,5.172-5.269,10.345a.764.764,0,0,0-.5,1q-2.694,3.818-5.389,7.637l-.03.015c-7.8,9.465-17.383,16.868-27.462,23.694ZM508.01,300.4a47.656,47.656,0,0,0,48.428-47.86c.137-27.246-20.477-48.84-47.073-49.309-26.98-.477-48.625,20.942-48.989,48.477A47.816,47.816,0,0,0,508.01,300.4Z" transform="translate(179.159 67.569)" fill="#2f376a"/>
    <path id="Path_2023" data-name="Path 2023" d="M239.016,230.743,253.856,205.4l-.03.007c6.073-3.069,10.174-8.35,14.734-13.119l2.365-1.716q8.4-5.151,16.8-10.3l-.129.068c1.97-.249,3.974-.42,5.159-2.373l-.03.034q4.613-1.508,9.226-3.02l2.451-.359,4.9-1.665,4.773-.55c20.856-1.5,41.257-.061,60.407,9.4l2.322.894q8.49,5.969,16.982,11.94,1.257,1.15,2.512,2.3a107.322,107.322,0,0,1,31.3,58q.211,7.249.425,14.5-.013,2.409-.025,4.822-.079,2.43-.156,4.861l-1.962,9.636-.716,4.81q-3.26,8.15-6.522,16.3a2.175,2.175,0,0,0-.628,2.217c-11.395,18.9-27.166,33.224-46.155,44.192l.1-.058-21.8,7.038c-31.045,3.736-59.952-.738-84.252-22.312C231.546,310.444,225.253,273.022,239.016,230.743Zm147.694,37.43c-.074-32.394-25.372-58.129-56.876-57.858-32.108.278-56.687,25.379-56.78,57.985-.093,32.528,24.73,57.616,56.9,57.507C362.4,325.7,386.784,300.938,386.709,268.173Z" transform="translate(44.43 68.329)" fill="#2f376a"/>
    <path id="Path_2024" data-name="Path 2024" d="M393.606,342.678c-1.395,22.491-1.408,22.9-25.1,22.19-5.868-.174-16.4,6.1-16.687-7.63.144-24.617.67-49.239.31-73.848-.274-18.684.816-37.008,7.656-54.616,5.511-9.472,11.432-18.664,18.647-26.96l.3-.361q9.866-8.058,19.732-16.12l7.131-3.642c20.65-10.438,42.9-9.957,65.168-9.8,4.978.036,6.413,2.033,5.948,6.449-.042.4.014.807.01,1.21-.068,9.3,3.114,20.606-1.068,27.351-4.751,7.659-16.938,2.271-25.824,2.82-32.831,2.021-56.7,26.242-56.162,57.743Z" transform="translate(127.256 68.287)" fill="#2f376a"/>
    <path id="Path_2025" data-name="Path 2025" d="M560.112,364.967l-27.252-.058-4.04-.027c-.229-25.546-.3-53.261-.532-78.807q-.008-8.932-.015-17.865V180.047l-.024-4.209c2.574-6.784,8.365-3.353,12.532-3.416,23.344-.349,23.348-.161,23.366,22.753.005,6.515,0,13.028,0,21.036,11.63-7.862,23.559-12.041,35.959-14.985l4.123-.349,12.591-.208,10.416.575c17.348,3.856,32.885,11.3,46.132,23.277q1.9,2.006,3.8,4.013l6.737,8.373-.044-.064a120.892,120.892,0,0,1,12.953,29.246q.157,1.066.318,2.129.729,4.222,1.459,8.448l.239,25.138q0,11.547,0,23.092v20.995c-1.232,19.592-1.232,19.592-20.966,19.614a45.052,45.052,0,0,0-6.291.047c-6.706.963-8.893-1.386-8.751-8.475.471-23.779.186-47.574.114-71.361-.014-4.511.408-9.147-2.092-13.292l-.3-2.116c-5.812-18.8-17.9-30.912-37.42-35.12a34.64,34.64,0,0,0-14.705-.364c-23.527,1.789-43.361,20.252-47.831,47.335l-.455,5.191q.015,29.083,0,58.164c0,2.833.022,1.994-.027,6.731,0,2.706,0,2.706-.1,5.7v2.126S560.105,362.169,560.112,364.967Z" transform="translate(249.452 68.129)" fill="#2f376a"/>
    <g id="Group_40" data-name="Group 40" transform="translate(990.283 161.535)">
      <path id="Path_2026" data-name="Path 2026" d="M681.175,394.472a27.331,27.331,0,0,1-27.33-27.33V152.736a27.33,27.33,0,0,1,54.661,0V367.142A27.331,27.331,0,0,1,681.175,394.472Z" transform="translate(-653.845 -125.406)" fill="#ffb300"/>
    </g>
    <g id="Group_41" data-name="Group 41" transform="translate(168.076 73.24)">
      <path id="Path_2027" data-name="Path 2027" d="M199.076,429.1a30.746,30.746,0,0,1-30.744-30.688l-.256-135.375.007-.352c.54-25.819.349-47.633.178-66.878-.518-58.76-.8-91.129,24.868-110.838C220.858,63.68,256.4,73.519,342.265,97.295c16.9,4.682,36.059,9.986,57.487,15.712l169.909,45.957A30.748,30.748,0,0,1,553.6,218.327L383.786,172.392c-21.6-5.773-40.9-11.119-57.932-15.832-40.521-11.218-79.017-21.88-93.763-21.88-.141,0-.278,0-.413,0-2.37,10.44-2.145,35.881-1.928,60.579.166,18.62.369,41.773-.181,68.36l.256,134.671A30.747,30.747,0,0,1,199.137,429.1Z" transform="translate(-168.076 -73.24)" fill="#ffb300"/>
    </g>
    <text id="Design_" data-name="Design " transform="translate(223.344 481.6)" fill="#5854a0" font-size="33" font-family="ArtifaktElement-Regular, Artifakt Element" letter-spacing="4em"><tspan x="0" y="0">Design</tspan><tspan y="0" font-size="49"> </tspan></text>
  </g>
</svg>
