<svg xmlns="http://www.w3.org/2000/svg" width="175" height="175" viewBox="0 0 175 175">
  <g id="Group_423" data-name="Group 423" transform="translate(-105.807 -87.014)">
    <path id="Path_2028" data-name="Path 2028" d="M253.484,145.379c-5.284.025-11.136-5.659-11.062-10.745.077-5.245,6.044-10.586,11.635-10.414,5.515.169,10.624,5.2,10.657,10.491C264.75,140.462,259.605,145.35,253.484,145.379Z" transform="translate(16.092 0.123)" fill="#ffb300"/>
    <path id="Path_2029" data-name="Path 2029" d="M116.87,261.036c-5.285.025-11.137-5.659-11.063-10.744.077-5.246,6.044-10.587,11.635-10.415,5.515.17,10.624,5.2,10.657,10.491C128.136,256.119,122.99,261.007,116.87,261.036Z" transform="translate(0 0.508)" fill="#ffb300"/>
    <path id="Path_2030" data-name="Path 2030" d="M171.719,249.874l-5.687,2c-4.445.2-8.924.7-13.1-1.493-1.223-.578-1.223-.578-2.72-1.318l-.041-.014c-.743-.662-.227-.155-1.191-.931-.65-.523-1.064-.952-1.075-.287a10.588,10.588,0,0,1-.014,1.258q.008,5.955.015,11.912h-9.039c-.023-1.315-.061-2.631-.068-3.946q-.069-14.8-.129-29.609l.044-1.615.136-1.121q.626-1.947,1.25-3.9v.005l4.22-6.612.009-.028c5.483-5.091,11.737-7.878,19.444-7.189A22.851,22.851,0,0,1,184,234.108c-.134.64-.225,1.289-.335,1.933a.321.321,0,0,0-.08.414l-.344.693-.162.6-1.471,2.887a.214.214,0,0,0-.14.279l-1.5,2.131-.009,0a35.269,35.269,0,0,1-7.664,6.613Zm-10.369-6.817a13.562,13.562,0,0,0,.379-27.117,13.56,13.56,0,0,0-.379,27.117Z" transform="translate(4.676 0.508)" fill="#2e2f5e"/>
    <path id="Path_2031" data-name="Path 2031" d="M140.569,159.178l4.142-7.072H144.7a16.019,16.019,0,0,0,4.112-3.66l.66-.48,4.689-2.874-.036.019c.55-.07,1.109-.118,1.44-.663l-.009.01,2.575-.843.684-.1,1.366-.465,1.332-.154c5.821-.417,11.514-.016,16.858,2.624l.648.249,4.74,3.332.7.643a29.948,29.948,0,0,1,8.734,16.187q.06,2.023.119,4.046l-.007,1.346-.044,1.357-.547,2.689-.2,1.342q-.911,2.275-1.82,4.549a.606.606,0,0,0-.175.619,35.189,35.189,0,0,1-12.881,12.333l.029-.017-6.083,1.964c-8.664,1.043-16.731-.205-23.512-6.226C138.484,181.42,136.729,170.977,140.569,159.178Zm41.217,10.446a15.862,15.862,0,1,0-31.718.035,15.86,15.86,0,1,0,31.718-.035Z" transform="translate(5.073 0.234)" fill="#2e2f5e"/>
    <path id="Path_2032" data-name="Path 2032" d="M206.825,190.4c-.39,6.277-.393,6.391-7.006,6.193-1.637-.049-4.575,1.7-4.657-2.129.041-6.87.188-13.742.087-20.609-.076-5.214.228-10.328,2.136-15.242a48.45,48.45,0,0,1,5.2-7.523l.085-.1,5.506-4.5,1.991-1.016c5.762-2.914,11.972-2.779,18.186-2.735,1.389.01,1.79.567,1.66,1.8-.012.111,0,.225,0,.338-.019,2.594.869,5.75-.3,7.632-1.326,2.138-4.727.634-7.207.787-9.162.564-15.824,7.324-15.673,16.115Z" transform="translate(11.62 0.235)" fill="#2e2f5e"/>
    <path id="Path_2033" data-name="Path 2033" d="M195.507,261.232l-7.605-.017-1.128-.007c-.064-7.129-.085-14.864-.148-21.993q0-2.493,0-4.986v-24.6l-.007-1.174c.718-1.893,2.334-.936,3.5-.953,6.515-.1,6.516-.045,6.521,6.35,0,1.818,0,3.635,0,5.87a29.44,29.44,0,0,1,10.035-4.182l1.151-.1,3.513-.058,2.907.16a27.763,27.763,0,0,1,12.874,6.5l1.062,1.12,1.88,2.337-.013-.018a33.727,33.727,0,0,1,3.615,8.162l.089.594q.2,1.178.407,2.357l.067,7.016q0,3.222,0,6.444v5.859c-.344,5.467-.344,5.467-5.851,5.474a12.39,12.39,0,0,0-1.756.013c-1.871.269-2.481-.387-2.442-2.365.132-6.636.052-13.276.032-19.915a6.83,6.83,0,0,0-.584-3.709l-.084-.591c-1.622-5.246-5-8.627-10.443-9.8a9.677,9.677,0,0,0-4.1-.1c-6.565.5-12.1,5.652-13.348,13.21l-.127,1.448q0,8.116,0,16.232c0,.791.007.557-.007,1.879,0,.755,0,.755-.027,1.591v.594S195.505,260.45,195.507,261.232Z" transform="translate(11.683 0.508)" fill="#2e2f5e"/>
    <g id="Group_44" data-name="Group 44" transform="translate(258.512 178.622)">
      <g id="Group_43" data-name="Group 43">
        <path id="Path_2034" data-name="Path 2034" d="M253.567,261.506a11.146,11.146,0,0,1-11.147-11.147v-61.1a11.147,11.147,0,1,1,22.294,0v61.1A11.146,11.146,0,0,1,253.567,261.506Z" transform="translate(-242.42 -178.114)" fill="#ffb300"/>
      </g>
    </g>
    <g id="Group_45" data-name="Group 45" transform="translate(105.806 87.014)">
      <path id="Path_2035" data-name="Path 2035" d="M117.024,196.666a11.148,11.148,0,0,1-11.147-11.127l-.071-40.2v-.12c.151-7.643.1-14.108.05-19.812-.146-17.679-.235-28.349,8.194-34.708,8.9-6.713,19.834-3.495,43.789,3.559,4.723,1.39,10.038,2.956,16.019,4.656l47.425,13.644a11.148,11.148,0,0,1-6.164,21.427l-47.391-13.636c-6.021-1.712-11.4-3.3-16.187-4.705-9.42-2.775-18.419-5.425-23.153-6.154-.339,3.594-.288,9.74-.238,15.732.045,5.531.1,12.41-.051,20.316l.071,39.96a11.147,11.147,0,0,1-11.126,11.168Z" transform="translate(-105.806 -87.014)" fill="#ffb300"/>
    </g>
  </g>
</svg>
